<?xml version="1.0" encoding="utf-8"?>
<svg version="1.1" xmlns="http://www.w3.org/2000/svg" xmlns:xlink="http://www.w3.org/1999/xlink" x="0px" y="0px" width="96px"
	 height="96px" viewBox="0 0 96 96" enable-background="new 0 0 96 96" xml:space="preserve">
<g id="Layer_2">
	<g>
		<path opacity="0.3" enable-background="new    " d="M48,7.25C17.809,7.25,7.25,17.81,7.25,48c0,30.188,10.559,40.75,40.75,40.75
			c30.191,0,40.75-10.563,40.75-40.75C88.75,17.81,78.191,7.25,48,7.25z M48,87.986C18.376,87.986,8.015,77.623,8.015,48
			C8.015,18.375,18.376,8.014,48,8.014c29.626,0,39.986,10.361,39.986,39.986C87.986,77.623,77.626,87.986,48,87.986z"/>
			<linearGradient id="SVGID_1_" gradientUnits="userSpaceOnUse" x1="799.5801" y1="-1887.2349" x2="799.5801" y2="-1806.5402" gradientTransform="matrix(1 0 0 -1 -751.5801 -1799.7803)">
			<stop  offset="0" style="stop-color:#242424"/>
			<stop  offset="1" style="stop-color:#606060"/>
		</linearGradient>
		<path fill="url(#SVGID_1_)" d="M88,48c0,29.633-10.363,40-40,40C18.365,88,8,77.633,8,48C8,18.365,18.365,8,48,8
			C77.637,8,88,18.365,88,48z"/>
	</g>
</g>
<g id="Layer_4" display="none">
	<g display="inline">
		<linearGradient id="SVGID_2_" gradientUnits="userSpaceOnUse" x1="7.25" y1="48" x2="88.75" y2="48">
			<stop  offset="0" style="stop-color:#373737"/>
			<stop  offset="0.7931" style="stop-color:#747474"/>
		</linearGradient>
		<path opacity="0.3" fill="url(#SVGID_2_)" enable-background="new    " d="M48,7.25C17.809,7.25,7.25,17.811,7.25,48
			c0,30.188,10.559,40.75,40.75,40.75S88.75,78.188,88.75,48C88.75,17.811,78.191,7.25,48,7.25z M48,87.986
			C18.376,87.986,8.016,77.623,8.016,48C8.016,18.375,18.376,8.014,48,8.014c29.626,0,39.986,10.361,39.986,39.986
			C87.986,77.623,77.626,87.986,48,87.986z"/>
			<linearGradient id="SVGID_3_" gradientUnits="userSpaceOnUse" x1="799.5801" y1="-1887.2349" x2="799.5801" y2="-1806.5402" gradientTransform="matrix(1 0 0 -1 -751.5801 -1799.7803)">
			<stop  offset="0" style="stop-color:#373737"/>
			<stop  offset="0.7931" style="stop-color:#747474"/>
		</linearGradient>
		<path fill="url(#SVGID_3_)" d="M88,48c0,29.633-10.363,40-40,40C18.365,88,8,77.633,8,48C8,18.365,18.365,8,48,8
			C77.637,8,88,18.365,88,48z"/>
	</g>
</g>
<g id="Layer_3" display="none">
	<g display="inline">
		<linearGradient id="SVGID_4_" gradientUnits="userSpaceOnUse" x1="7.1724" y1="47.9775" x2="88.6719" y2="47.9775">
			<stop  offset="0" style="stop-color:#CCCAC6"/>
			<stop  offset="1" style="stop-color:#FFFFFF"/>
		</linearGradient>
		<path opacity="0.3" fill="url(#SVGID_4_)" enable-background="new    " d="M47.922,7.228c-30.191,0-40.75,10.561-40.75,40.75
			c0,30.188,10.559,40.75,40.75,40.75c30.191,0,40.75-10.563,40.75-40.75C88.672,17.788,78.113,7.228,47.922,7.228z M47.922,87.964
			c-29.624,0-39.984-10.363-39.984-39.986c0-29.625,10.36-39.986,39.984-39.986c29.626,0,39.986,10.361,39.986,39.986
			C87.908,77.601,77.549,87.964,47.922,87.964z"/>
			<linearGradient id="SVGID_5_" gradientUnits="userSpaceOnUse" x1="799.5029" y1="-1887.2124" x2="799.5029" y2="-1806.5177" gradientTransform="matrix(1 0 0 -1 -751.5801 -1799.7803)">
			<stop  offset="0" style="stop-color:#CCCAC6"/>
			<stop  offset="1" style="stop-color:#FFFFFF"/>
		</linearGradient>
		<path fill="url(#SVGID_5_)" d="M87.922,47.978c0,29.633-10.363,40-40,40c-29.635,0-40-10.367-40-40c0-29.635,10.365-40,40-40
			C77.559,7.978,87.922,18.343,87.922,47.978z"/>
	</g>
</g>
<g id="Layer_1">
	<g>
		<path opacity="0.1" enable-background="new    " d="M48,6.538c-30.839,0-41.625,10.738-41.625,41.44
			c0,30.7,10.786,41.439,41.625,41.439c30.84,0,41.625-10.739,41.625-41.439C89.625,17.276,78.84,6.538,48,6.538z M48,88.641
			c-30.26,0-40.844-10.539-40.844-40.663C7.156,17.851,17.74,7.315,48,7.315c30.264,0,40.844,10.536,40.844,40.663
			C88.844,78.102,78.264,88.641,48,88.641z"/>
	</g>
	<path opacity="0.3" fill="#FFFFFF" enable-background="new    " d="M48,9.875c29.318,0,39.768,10.156,39.988,39.063
		C87.992,48.623,88,48.318,88,48C88,18.365,77.637,8,48,8C18.365,8,8,18.365,8,48c0,0.318,0.008,0.623,0.011,0.938
		C8.232,20.031,18.684,9.875,48,9.875z"/>
	<path opacity="0.6" enable-background="new    " d="M47.923,87.959c-29.292,0-39.733-10.158-39.955-39.063
		c-0.003,0.313-0.011,0.619-0.011,0.938c0,29.633,10.356,40,39.965,40c29.609,0,39.965-10.367,39.965-40
		c0-0.318-0.009-0.623-0.012-0.938C87.654,77.801,77.216,87.959,47.923,87.959z"/>
</g>
<g id="Layer_5">
	<g>
		<path fill="#FFFFFF" d="M62.828,29.785c0,0-0.19-3.552-1.208-4.65c-1.033-1.11-2.344-1.368-3.3-1.557
			c-1.122-0.221-3.18-0.524-6.629-0.709c-1.573-0.085-2.808-0.123-4.007-0.123c-1.059,0-2.014,0.028-3.23,0.063l-0.584,0.019
			c-2.329,0.066-4.183,0.234-4.974,0.307c-0.171,0.015-0.287,0.026-0.349,0.03c-0.081,0.006-0.327,0.021-0.422,0.189
			c-0.004,0.011-0.012,0.021-0.015,0.032c-0.362,0.058-1.287,0.215-2.018,0.425c-1.22,0.354-1.89,0.809-2.473,1.684
			c-0.531,0.798-0.638,2.142-0.677,2.648c-0.006,0.052-0.009,0.125-0.009,0.125l-0.138,38.575l0.197,3.481
			c0,0,0.763,3.699,1.528,4.501c0.692,0.729,1.608,1.165,2.963,1.408c0.146,0.024,0.282,0.052,0.417,0.077
			c1.022,0.188,1.83,0.337,4.642,0.475c0.282,0.015,0.558,0.026,0.829,0.042c1.275,0.066,2.485,0.127,4.1,0.127
			c1.146,0,2.413-0.03,3.876-0.094c5.112-0.229,7.651-0.503,9.154-1.52c1.48-1.001,1.821-2.482,2.047-3.462l0.011-0.041
			c0.26-1.141,0.363-4.514,0.363-4.514L62.828,29.785z M47.838,74.2c-0.879,0-1.592-0.664-1.592-1.482
			c0-0.819,0.712-1.482,1.592-1.482c0.881,0,1.595,0.663,1.595,1.482C49.433,73.536,48.719,74.2,47.838,74.2z M60.3,66.267H35.306
			V29.138H60.3V66.267z"/>
			<radialGradient id="SVGID_6_" cx="449.332" cy="867.9414" r="28.9482" gradientTransform="matrix(1 0 0 1 -401 -837)" gradientUnits="userSpaceOnUse">
			<stop  offset="0" style="stop-color:#58595B"/>
			<stop  offset="1" style="stop-color:#000000"/>
		</radialGradient>
		<rect x="35.306" y="29.138" display="none" fill="url(#SVGID_6_)" width="24.994" height="37.129"/>
	</g>
	<path opacity="0.3" fill="#FFFFFF" stroke="#000000" stroke-miterlimit="10" enable-background="new    " d="M50.879,41.037
		c-1.718-0.704-3.661-0.813-5.466-0.282c-3.429,1.003-5.653,4.029-5.423,7.359l-2.339,0.142c-0.304-4.336,2.598-8.274,7.056-9.584
		c2.613-0.765,5.436-0.5,7.839,0.707l2.245-2.231l0.6,6.189l-7.052,0.219L50.879,41.037z M50.79,56.626
		c-0.987,0.287-2.012,0.434-3.032,0.434c-1.661,0-3.308-0.398-4.797-1.144l-2.25,2.235l-0.598-6.191l7.048-0.221l-2.534,2.522
		c1.714,0.7,3.656,0.813,5.46,0.281c3.429-1.006,5.657-4.034,5.424-7.359l2.338-0.143C58.155,51.372,55.254,55.315,50.79,56.626z"/>
	<path fill="#FFFFFF" d="M50.877,41.037c-1.716-0.704-3.659-0.813-5.465-0.282c-3.428,1.003-5.653,4.027-5.423,7.359l-2.339,0.142
		c-0.303-4.336,2.6-8.274,7.058-9.584c2.612-0.765,5.436-0.5,7.839,0.707l2.245-2.231l0.598,6.19l-7.05,0.218L50.877,41.037z
		 M50.79,56.626c-0.987,0.287-2.014,0.434-3.032,0.434c-1.661,0-3.308-0.4-4.799-1.144l-2.248,2.233l-0.599-6.189l7.048-0.221
		l-2.534,2.521c1.715,0.701,3.658,0.812,5.461,0.282c3.427-1.006,5.656-4.034,5.423-7.359l2.339-0.142
		C58.155,51.372,55.254,55.315,50.79,56.626z"/>
</g>
</svg>
